<svg xmlns="http://www.w3.org/2000/svg" viewBox="0 0 64 64">
  <path fill="#a1a1a1" fill-rule="evenodd" stroke="#000" stroke-linecap="round" stroke-linejoin="round" stroke-width=".6159" d="m58.2128 38.1352.121 8.3555 1.022.8477-.1018-9.2032z"/>
  <path fill="#cfcfcf" fill-rule="evenodd" stroke="#000" stroke-linecap="round" stroke-linejoin="round" stroke-width=".6169" d="m59.2528 38.1186.103 9.2198.8215-.413-.0131-8.8068z"/>
  <path fill="#3a3a3a" fill-rule="evenodd" stroke="#000" stroke-linecap="round" stroke-linejoin="round" stroke-width=".6169" d="m.3084 10.5665 47.0243 29.1413 5.3882-4.4494s-.9729-1.99.658-3.2434c1.7822-1.3697 3.9066.051 3.9066.051l4.6477-3.5786L14.7923.3084Z"/>
  <path fill="#121212" fill-rule="evenodd" stroke="#000" stroke-linecap="round" stroke-linejoin="round" stroke-width=".6169" d="m.3084 10.5665.205 10.333L47.4506 50.367l-.118-10.6592L.3083 10.5665"/>
  <path fill="#767676" fill-rule="evenodd" stroke="#000" stroke-linecap="round" stroke-linejoin="round" stroke-width=".6169" d="m47.3327 39.7078.118 10.6592 14.4964-11.5737-.0131-10.306Z"/>
  <path fill="#a1a1a1" fill-rule="evenodd" stroke="#000" stroke-linecap="round" stroke-linejoin="round" stroke-width=".6159" d="M4.7541 19.9182 3.392 21.7264l.2518 7.4258.895.9563.1479 10.2487 1.0223.8478-.1191-10.6954.979-.3102.2275-5.9363 1.4894-1.9087Z"/>
  <path fill="#cfcfcf" fill-rule="evenodd" stroke="#000" stroke-linecap="round" stroke-linejoin="round" stroke-width=".6169" d="m5.709 41.205.8208-.4124-.0131-9.4746.9011-.3867.1496-5.9651.7189-2.6118-1.4894 1.9087-.2274 5.9363-.9791.3102.1191 10.6954"/>
  <path fill="#a1a1a1" fill-rule="evenodd" stroke="#000" stroke-linecap="round" stroke-linejoin="round" stroke-width=".6159" d="m11.216 24.088-1.3623 1.8083.2519 7.4257.895.9563.1478 10.2487 1.0223.8479-.119-10.6955.979-.3101.2275-5.9363 1.4893-1.9088z"/>
  <path fill="#cfcfcf" fill-rule="evenodd" stroke="#000" stroke-linecap="round" stroke-linejoin="round" stroke-width=".6169" d="m12.1708 45.3749.8209-.4125-.0131-9.4745.901-.3867.1497-5.9652.7189-2.6118-1.4894 1.9088-.2274 5.9363-.9792.3101.1192 10.6955"/>
  <path fill="#a1a1a1" fill-rule="evenodd" stroke="#000" stroke-linecap="round" stroke-linejoin="round" stroke-width=".6159" d="m18.219 28.6027-1.3624 1.8082.252 7.4257.895.9563.1477 10.2488 1.0224.8478-.1192-10.6954.9792-.3102.2274-5.9363 1.4893-1.9088z"/>
  <path fill="#cfcfcf" fill-rule="evenodd" stroke="#000" stroke-linecap="round" stroke-linejoin="round" stroke-width=".6169" d="m19.1737 49.8895.821-.4124-.0132-9.4746.901-.3867.1497-5.9651.7189-2.6119-1.4894 1.9088-.2274 5.9363-.9792.3102.1192 10.6954"/>
  <path fill="#a1a1a1" fill-rule="evenodd" stroke="#000" stroke-linecap="round" stroke-linejoin="round" stroke-width=".6159" d="m24.8366 32.8914-1.3623 1.8082.2519 7.4258.895.9563.1478 10.2487 1.0223.8478-.119-10.6954.979-.3102.2275-5.9363 1.4893-1.9087z"/>
  <path fill="#cfcfcf" fill-rule="evenodd" stroke="#000" stroke-linecap="round" stroke-linejoin="round" stroke-width=".6169" d="m25.7914 54.1782.8209-.4124-.0132-9.4746.9012-.3867.1495-5.9651.719-2.6118-1.4894 1.9087-.2275 5.9363-.979.3102.119 10.6954"/>
  <path fill="#a1a1a1" fill-rule="evenodd" stroke="#000" stroke-linecap="round" stroke-linejoin="round" stroke-width=".6159" d="m31.792 37.184-1.3624 1.8083.2519 7.4257.895.9563.1478 10.2487 1.0224.8479-.1192-10.6955.9792-.3101.2274-5.9363 1.4893-1.9088z"/>
  <path fill="#cfcfcf" fill-rule="evenodd" stroke="#000" stroke-linecap="round" stroke-linejoin="round" stroke-width=".6169" d="m32.7467 58.4709.8209-.4125-.0131-9.4745.9011-.3867.1496-5.9652.7189-2.6118-1.4894 1.9088-.2274 5.9363-.9792.3101.1192 10.6955"/>
  <path fill="#a1a1a1" fill-rule="evenodd" stroke="#000" stroke-linecap="round" stroke-linejoin="round" stroke-width=".6159" d="m38.813 42.4048-1.3623 1.8082.2518 7.4257.895.9564.1479 10.2487 1.0223.8478-.1191-10.6954.9791-.3102.2274-5.9363 1.4894-1.9088z"/>
  <path fill="#cfcfcf" fill-rule="evenodd" stroke="#000" stroke-linecap="round" stroke-linejoin="round" stroke-width=".6169" d="m39.7678 63.6916.8208-.4124-.013-9.4746.901-.3867.1496-5.9651.719-2.6119-1.4895 1.9088-.2274 5.9363-.9791.3102.1191 10.6954"/>
  <path fill="#ffdb58" fill-rule="evenodd" d="m49.892 43.2468.0334 4.7766.8803-.7606-.0226-4.7157zm1.4153-1.1354.0333 4.7767.8803-.7607-.0226-4.7157zm1.4867-1.1585.0334 4.7766.8802-.7606-.0225-4.7157zm1.426-1.1409.0332 4.7767.8803-.7607-.0225-4.7157zm1.4013-1.1182.0333 4.7767.8803-.7606-.0226-4.7157zm1.3612-1.0846.0333 4.7766.8803-.7606-.0226-4.7157zm1.3335-1.1079.0332 4.7766.8803-.7606-.0225-4.7157zm1.3469-1.0289.0333 4.7766.8803-.7606-.0226-4.7157z"/>
  <path fill="#757575" fill-rule="evenodd" stroke="#000" stroke-linecap="round" stroke-linejoin="round" stroke-width=".575" d="m50.9604 37.1 6.325-5.034-.0087-4.2039-6.4932 4.7263z"/>
  <path fill="#b9b9b9" fill-rule="evenodd" stroke="#000" stroke-linecap="round" stroke-linejoin="round" stroke-width=".575" d="M30.1383 8.8954 42.557 22.0251l-1.56 1.0521 5.9463 7.1826 3.8394 2.3286 6.4939-4.7263-4.7496-2.2714-5.2165-6.9547-1.8662 1.4154L33.3208 7.156z"/>
  <path fill="#4e4e4e" fill-rule="evenodd" stroke="#000" stroke-linecap="round" stroke-linejoin="round" stroke-width=".575" d="m30.1383 8.8954-.0226 3.2137 9.6201 10.2547.1352 2.9902 7.2954 8.527.1654 1.0582L50.9605 37.1l-.1778-4.5116-3.8394-2.3286-5.9463-7.1826 1.56-1.052z"/>
  <ellipse cx="46.7282" cy="36.8503" fill="#fff" stroke="#000" stroke-linecap="round" stroke-linejoin="round" stroke-width="1.6017" paint-order="stroke markers fill" rx="4.9504" ry="5.8268"/>
  <ellipse cx="58.8954" cy="28.3176" fill="#fff" stroke="#000" stroke-linecap="round" stroke-linejoin="round" stroke-width="1.4352" paint-order="stroke markers fill" rx="4.387" ry="5.279"/>
  <ellipse cx="47.9623" cy="38.1591" paint-order="stroke markers fill" rx="3.0239" ry="4.4062"/>
  <ellipse cx="59.34" cy="29.5493" paint-order="stroke markers fill" rx="2.6797" ry="3.9919"/>
</svg>
